<?xml version="1.0" standalone="no"?><!DOCTYPE svg PUBLIC "-//W3C//DTD SVG 1.1//EN" "http://www.w3.org/Graphics/SVG/1.1/DTD/svg11.dtd"><svg class="icon" width="200px" height="200.00px" viewBox="0 0 1024 1024" version="1.1" xmlns="http://www.w3.org/2000/svg"><path fill="#d81e06" d="M492.8 138.2144a283.648 283.648 0 0 0-408.832 0c-111.9488 115.1488-111.9488 342.2464 0 457.4208l55.8848 57.5232 2.304 2.2272 335.4624 304.128a51.2 51.2 0 0 0 68.7872 0l335.4112-304.128 2.3296-2.2272 55.8848-57.5232c111.9488-115.2 111.9488-342.272 0-457.472a283.7248 283.7248 0 0 0-408.832 0L512 157.952l-19.2-19.7376z m373.8112 71.3216c73.3184 75.4688 73.3184 239.2832 0 314.7264l-54.784 56.3456L512.0512 852.48 212.1472 580.608l-54.7584-56.32c-73.3184-75.4688-73.3184-239.2832 0-314.7008 72.4992-74.624 189.44-74.624 261.9904 0l55.936 57.5232a51.2 51.2 0 0 0 73.4464-0.0256l55.8592-57.5488c72.5504-74.5728 189.4912-74.5728 261.9904 0z"  /></svg>